<svg width="26" height="32" viewBox="0 0 26 32" fill="none" xmlns="http://www.w3.org/2000/svg">
<path d="M24.1473 10.5201C24.1473 8.02985 22.9002 5.77569 20.882 4.14272C18.8638 2.51102 16.0779 1.50064 13.0002 1.50064C9.92243 1.50064 7.13653 2.50975 5.11834 4.14272C3.10174 5.77569 1.853 8.02985 1.853 10.5201C1.853 14.563 7.5245 20.9597 11.4616 25.3994L11.4632 25.4007L11.4663 25.3994C12.015 26.0182 12.5321 26.6012 12.9989 27.1408C13.4672 26.6012 13.9827 26.0194 14.5314 25.3994C14.5456 25.3828 14.5614 25.3675 14.5772 25.351C18.5126 20.9138 24.1429 14.5479 24.1429 10.5203L24.1473 10.5201ZM13.0001 4.79068C15.023 4.79068 16.852 5.45406 18.1779 6.52699C19.5023 7.59861 20.3222 9.07978 20.3222 10.7165C20.3222 12.3533 19.5024 13.8345 18.1779 14.9061C16.8535 15.9777 15.0229 16.6411 13.0001 16.6411C10.9772 16.6411 9.14817 15.9777 7.82222 14.9061C6.49781 13.8345 5.67791 12.3533 5.67791 10.7165C5.67791 9.07975 6.49777 7.59985 7.82222 6.52699C9.14664 5.45537 10.9772 4.79068 13.0001 4.79068ZM16.8677 7.58715C15.8791 6.78725 14.5106 6.29096 13.0001 6.29096C11.4896 6.29096 10.1226 6.78722 9.13243 7.58715C8.14384 8.38704 7.53048 9.49439 7.53048 10.7153C7.53048 11.9375 8.1438 13.0448 9.13243 13.8447C10.121 14.6446 11.4896 15.1409 13.0001 15.1409C14.5106 15.1409 15.8776 14.6447 16.8677 13.8447C17.8563 13.0448 18.4697 11.9375 18.4697 10.7153C18.4697 9.49312 17.8563 8.38704 16.8677 7.58715ZM19.6364 27.1126C19.1477 26.9914 18.8749 26.573 19.0247 26.1774C19.1745 25.782 19.6916 25.5613 20.1804 25.6825C21.3283 25.9682 22.2727 26.3267 22.9381 26.7388C23.7295 27.2274 24.1695 27.8079 24.1695 28.4585C24.1695 29.5875 22.7804 30.5291 20.5367 31.1414C18.5911 31.6709 15.9248 32 13.0016 32C10.0785 32 7.4137 31.6721 5.46656 31.1414C3.22133 30.5303 1.83383 29.5875 1.83383 28.4585C1.83383 27.8079 2.27372 27.2274 3.06525 26.7388C3.7306 26.3267 4.67507 25.9682 5.82289 25.6825C6.31165 25.5613 6.82726 25.782 6.97862 26.1774C7.12841 26.5729 6.85564 26.9901 6.36687 27.1126C5.42717 27.3473 4.68137 27.6242 4.18946 27.9291C3.86781 28.1281 3.68963 28.3093 3.68963 28.4585C3.68963 28.8718 4.59309 29.3247 6.05627 29.7228C7.81746 30.2025 10.2706 30.4985 13.0049 30.4985C15.7373 30.4985 18.1924 30.2012 19.9535 29.7228C21.4151 29.3235 22.3201 28.8718 22.3201 28.4585C22.3201 28.308 22.142 28.1268 21.8203 27.9291C21.3283 27.6254 20.581 27.3473 19.6429 27.1126H19.6364ZM22.1923 3.08243C24.5447 4.98586 26 7.61654 26 10.52C26 15.0195 20.1598 21.6216 16.0794 26.222C16.0668 26.2385 16.0526 26.2551 16.04 26.2717C15.1713 27.2515 14.3844 28.1381 13.7774 28.8641C13.7128 28.947 13.6245 29.0197 13.5173 29.0784C13.0931 29.3093 12.5176 29.22 12.2322 28.8768C11.6236 28.1483 10.8337 27.2566 9.96021 26.2717L9.96337 26.2691C5.88139 21.6661 0 15.0323 0 10.5185C0 7.61487 1.45531 4.98435 3.80775 3.08096C6.16018 1.17757 9.41144 0 12.9998 0C16.5881 0 19.8394 1.17754 22.1918 3.08096L22.1923 3.08243Z" fill="#6F6D6D"/>
</svg>
